<svg version="1.1" xmlns="http://www.w3.org/2000/svg" xmlns:xlink="http://www.w3.org/1999/xlink" width="1100.1666666666667" height="506.2679533974814"><defs><clipPath id="gA9aIIF5Gcml"><path fill="none" stroke="none" d="M 0 0 L 40 0 L 40 40 L 0 40 Z"></path></clipPath><clipPath id="ifmObPm2a6My"><path fill="none" stroke="none" d="M 0 0 L 120 0 L 120 89 L 0 89 Z"></path></clipPath><linearGradient id="BCcVyItBSnFx" x1="19.785px" x2="104.01px" y1="42.217px" y2="19.62px" gradientUnits="userSpaceOnUse"><stop offset="0" stop-color="#EDEDEE"></stop><stop offset="1" stop-color="#A0A2A4"></stop></linearGradient><clipPath id="v4vXCPrK66J3"><path fill="none" stroke="none" d="M 0 0 L 80 0 L 80 100 L 0 100 Z"></path></clipPath><linearGradient id="8qC46dI7QONW" x1="0px" x2="80px" y1="82.842px" y2="82.842px" gradientUnits="userSpaceOnUse"><stop offset="0" stop-color="#808080"></stop><stop offset="0.7055" stop-color="#FFF"></stop><stop offset="1" stop-color="#171717"></stop></linearGradient><linearGradient id="dbpginOTs1wO" x1="0px" x2="80px" y1="63.775px" y2="63.775px" gradientUnits="userSpaceOnUse"><stop offset="0" stop-color="#808080"></stop><stop offset="0.7055" stop-color="#FFF"></stop><stop offset="1" stop-color="#171717"></stop></linearGradient><linearGradient id="bOrQyHDVkH8g" x1="0px" x2="80px" y1="42.19px" y2="42.19px" gradientUnits="userSpaceOnUse"><stop offset="0" stop-color="#808080"></stop><stop offset="0.7055" stop-color="#FFF"></stop><stop offset="1" stop-color="#171717"></stop></linearGradient><clipPath id="X5R9cEAs9sSp"><path fill="none" stroke="none" d="M 0 0 L 55.83333333333333 0 L 55.83333333333333 100 L 0 100 Z"></path></clipPath><linearGradient id="FU2z5o2UMffP" x1="23.159px" x2="23.159px" y1="99.712px" y2="5.1133px" gradientUnits="userSpaceOnUse"><stop offset="0" stop-color="#000"></stop><stop offset="1" stop-color="#FFF"></stop></linearGradient><clipPath id="cbNqexWmFZVZ"><path fill="none" stroke="none" d="M 0 0 L 40 0 L 40 40 L 0 40 Z"></path></clipPath><clipPath id="tNDVVUcTbEiV"><path fill="none" stroke="none" d="M 0 0 L 100 0 L 100 70 L 0 70 Z"></path></clipPath><linearGradient id="0DaCbrlSSphu" x1="103.15px" x2="7.8606px" y1="31.788px" y2="20.96px" gradientUnits="userSpaceOnUse"><stop offset="0" stop-color="#242424"></stop><stop offset="1" stop-color="#CBCBCB"></stop></linearGradient></defs><g transform="translate(0,0)"><g><rect fill="#FFFFFF" stroke="none" x="0" y="0" width="1100.1666666666667" height="506.2679533974814"></rect></g><g transform="translate(0,0) matrix(-0.4999999999999998,0.8660254037844388,-0.8660254037844388,-0.4999999999999998,842.9903810567666,223.2179676972449)"><g><g transform="translate(0,0) scale(1.6,0.3)"><g><g transform="scale(0.625,3.3333333333333335)"><path fill="#CCC7BD" stroke="#7E725A" d="M 0 9 L 145 9 L 145 0 L 160 15 L 145 30 L 145 21 L 0 21 L 0 9 L 0 9 Z" stroke-miterlimit="10" stroke-width="2"></path></g></g></g></g></g><g transform="translate(0,0) matrix(1,0,0,1,399.83333333333326,48.26795339748139)"><g><g transform="translate(0,0) scale(6.203333333333335,0.36)"><g><path fill="none" stroke="none" d="M 4 0 L 96 0 Q 100 0 100 4 L 100 100 L 0 100 L 0 4 Q 0 0 4 0 Z"></path><g transform="scale(0.1612036539494895,2.7777777777777777)"><path fill="#6897BB" stroke="#6897BB" d="M 4 0 L 616.3333333333335 0 Q 620.3333333333335 0 620.3333333333335 4 L 620.3333333333335 36 L 0 36 L 0 4 Q 0 0 4 0 Z" stroke-miterlimit="10" stroke-width="2"></path></g></g></g></g></g><g transform="scale(1,1) matrix(1,0,0,1,399.83333333333326,48.26795339748139) translate(2,6)"><text fill="#000000" stroke="none" font-family="Helvetica" font-size="24px" font-style="normal" font-weight="bold" text-decoration="none" x="267.50260416666674" y="19">Logger</text></g><g transform="translate(0,0) matrix(1,0,0,1,399.83333333333326,84.26795339748139)"><g><g transform="translate(0,0) scale(5.1693152115641565,3.1560283687943262) translate(0,-25)"><g transform="translate(0,25)"><g><path fill="none" stroke="none" d="M 0 0 L 120.003 0 L 120.003 66.5 Q 120.003 70.5 116.003 70.5 L 4 70.5 Q 0 70.5 0 66.5 L 0 0 Z"></path><g transform="scale(0.19344922084900587,0.31685393258426964)"><path fill="#e1eaf1" stroke="#6897BB" d="M 0 0 L 620.3333333333335 0 L 620.3333333333335 218.5 Q 620.3333333333335 222.5 616.3333333333335 222.5 L 4 222.5 Q 0 222.5 0 218.5 L 0 0 Z" stroke-miterlimit="10" stroke-width="2"></path></g></g></g><g><path fill="#6897BB" stroke="rgb(0,0,0)" d="M 80.412 53.937 C 87.183 54.749 93.058 59.744 92.457 67.666 C 92.211 70.865 90.756 72.637 88.728 74.613 C 87.345 75.97 84.402 77.39 81.416 77.681 C 78.193 77.995 74.572 77.962 70.947 77.962 C 64.398 77.962 56.801 77.962 50.154 77.962 C 44.242 77.962 38.084 78.411 34.523 76.245 C 31.064 74.145 28.507 71.511 28.5 66.661 C 28.488 59.958 33.301 55.188 39.541 54.222 C 37.357 47.331 45.93 41.602 51.301 46.068 C 54.498 41.662 58.408 37.45 66.358 38.059 C 74.604 38.692 80.322 45.354 80.412 53.937 Z" stroke-opacity="0" stroke-miterlimit="10"></path></g></g></g></g><g transform="translate(0,0) matrix(1,0,0,1,412.41666666666663,128.26071528402508)"><g><g transform="translate(0,0) scale(1.9516666666666678,0.25)"><g><path fill="none" stroke="none" d="M 4 0 L 96 0 Q 100 0 100 4 L 100 100 L 0 100 L 0 4 Q 0 0 4 0 Z"></path><g transform="scale(0.512382578992314,4)"><path fill="#6897BB" stroke="#6897BB" d="M 4 0 L 191.16666666666677 0 Q 195.16666666666677 0 195.16666666666677 4 L 195.16666666666677 25 L 0 25 L 0 4 Q 0 0 4 0 Z" stroke-miterlimit="10" stroke-width="2"></path></g></g></g></g></g><g transform="scale(1,1) matrix(1,0,0,1,412.41666666666663,128.26071528402508) translate(2,6)"><text fill="#000000" stroke="none" font-family="Helvetica" font-size="13px" font-style="normal" font-weight="normal" text-decoration="none" x="81.13924153645839" y="11">Filter</text></g><g transform="translate(0,0) matrix(1,0,0,1,412.41666666666663,153.26071528402508)"><g><g transform="translate(0,0) scale(1.6263482301831351,1.6915920299781038) translate(0,-25)"><g transform="translate(0,25)"><g><path fill="none" stroke="none" d="M 0 0 L 120.003 0 L 120.003 66.5 Q 120.003 70.5 116.003 70.5 L 4 70.5 Q 0 70.5 0 66.5 L 0 0 Z"></path><g transform="scale(0.6148744662681466,0.5911590869891626)"><path fill="#e1eaf1" stroke="#6897BB" d="M 0 0 L 195.16666666666677 0 L 195.16666666666677 115.25723811345631 Q 195.16666666666677 119.25723811345631 191.16666666666677 119.25723811345631 L 4 119.25723811345631 Q 0 119.25723811345631 0 115.25723811345631 L 0 0 Z" stroke-miterlimit="10" stroke-width="2"></path></g></g></g><g><path fill="#6897BB" stroke="rgb(0,0,0)" d="M 80.412 53.937 C 87.183 54.749 93.058 59.744 92.457 67.666 C 92.211 70.865 90.756 72.637 88.728 74.613 C 87.345 75.97 84.402 77.39 81.416 77.681 C 78.193 77.995 74.572 77.962 70.947 77.962 C 64.398 77.962 56.801 77.962 50.154 77.962 C 44.242 77.962 38.084 78.411 34.523 76.245 C 31.064 74.145 28.507 71.511 28.5 66.661 C 28.488 59.958 33.301 55.188 39.541 54.222 C 37.357 47.331 45.93 41.602 51.301 46.068 C 54.498 41.662 58.408 37.45 66.358 38.059 C 74.604 38.692 80.322 45.354 80.412 53.937 Z" stroke-opacity="0" stroke-miterlimit="10"></path></g></g></g></g><g transform="translate(0,0) matrix(0.5000000000000001,0.8660254037844386,-0.8660254037844386,0.5000000000000001,907.9350160847398,214.15728773823463)"><g><g transform="translate(0,0) scale(1.5,0.3)"><g><g transform="scale(0.6666666666666666,3.3333333333333335)"><path fill="#CCC7BD" stroke="#7E725A" d="M 0 9 L 135 9 L 135 0 L 150 15 L 135 30 L 135 21 L 0 21 L 0 9 L 0 9 Z" stroke-miterlimit="10" stroke-width="2"></path></g></g></g></g></g><g transform="translate(0,0) matrix(1,0,0,1,665.1666666666667,96.76795339748139)"><g><g transform="translate(0,0) scale(3.4,1.6)"><g><path fill="none" stroke="none" d="M 10 0 L 90 0 Q 100 0 100 10 L 100 90 Q 100 100 90 100 L 10 100 Q 0 100 0 90 L 0 10 Q 0 0 10 0 Z"></path><g transform="scale(0.29411764705882354,0.625)"><path fill="#CBD8DE" stroke="#7F9EAD" d="M 10 0 L 330 0 Q 340 0 340 10 L 340 150 Q 340 160 330 160 L 10 160 Q 0 160 0 150 L 0 10 Q 0 0 10 0 Z" stroke-miterlimit="10" stroke-width="2"></path></g></g></g></g></g><g transform="translate(0,0) matrix(1,0,0,1,640.1666666666667,114.26795339748139)"><g><g transform="translate(0,0) scale(3.4,1.6)"><g><path fill="none" stroke="none" d="M 10 0 L 90 0 Q 100 0 100 10 L 100 90 Q 100 100 90 100 L 10 100 Q 0 100 0 90 L 0 10 Q 0 0 10 0 Z"></path><g transform="scale(0.29411764705882354,0.625)"><path fill="#CBD8DE" stroke="#7F9EAD" d="M 10 0 L 330 0 Q 340 0 340 10 L 340 150 Q 340 160 330 160 L 10 160 Q 0 160 0 150 L 0 10 Q 0 0 10 0 Z" stroke-miterlimit="10" stroke-width="2"></path></g></g></g></g></g><g transform="translate(0,0) matrix(1,0,0,1,620.0833333333333,140.38933434075324)"><g><g transform="translate(0,0) scale(3.4,1.6)"><g><path fill="none" stroke="none" d="M 10 0 L 90 0 Q 100 0 100 10 L 100 90 Q 100 100 90 100 L 10 100 Q 0 100 0 90 L 0 10 Q 0 0 10 0 Z"></path><g transform="scale(0.29411764705882354,0.625)"><path fill="#CBD8DE" stroke="#7F9EAD" d="M 10 0 L 330 0 Q 340 0 340 10 L 340 150 Q 340 160 330 160 L 10 160 Q 0 160 0 150 L 0 10 Q 0 0 10 0 Z" stroke-miterlimit="10" stroke-width="2"></path></g></g></g></g></g><g transform="translate(0,0) matrix(1,0,0,1,670.1666666666667,176.7679533974814)"><g><g transform="translate(0,0) scale(1,0.75)"><g><path fill="none" stroke="none" d="M 10 0 L 90 0 Q 100 0 100 10 L 100 90 Q 100 100 90 100 L 10 100 Q 0 100 0 90 L 0 10 Q 0 0 10 0 Z"></path><g transform="scale(1,1.3333333333333333)"><path fill="#CBD8DE" stroke="#7F9EAD" d="M 10 0 L 90 0 Q 100 0 100 10 L 100 65 Q 100 75 90 75 L 10 75 Q 0 75 0 65 L 0 10 Q 0 0 10 0 Z" stroke-miterlimit="10" stroke-width="2"></path></g></g></g></g></g><g transform="scale(1,1) matrix(1,0,0,1,672.1666666666667,176.7679533974814) translate(2,27.5)"><text fill="#000000" stroke="none" font-family="Arial" font-size="18px" font-style="normal" font-weight="normal" text-decoration="none" x="6.994140625" y="15">Formatter</text></g><g transform="scale(1,1) matrix(1,0,0,1,710.1666666666667,153.7679533974814) translate(2,0)"><text fill="rgb(37, 47, 52)" stroke="none" font-family="Arial" font-size="18px" font-style="normal" font-weight="normal" text-decoration="none" x="36.97802734375" y="15">Frontend</text></g><g transform="translate(0,0) matrix(6.123233995736766e-17,1,-1,6.123233995736766e-17,870,250)"><g><g transform="translate(0,0) scale(1.1,0.3)"><g><g transform="scale(0.9090909090909091,3.3333333333333335)"><path fill="#CCC7BD" stroke="#7E725A" d="M 0 9 L 95 9 L 95 0 L 110.00000000000001 15 L 95 30 L 95 21 L 0 21 L 0 9 L 0 9 Z" stroke-miterlimit="10" stroke-width="2"></path></g></g></g></g></g><g transform="scale(1,1) matrix(1,0,0,1,215.83333333333331,170.38933434075324) translate(2,0)"><text fill="rgb(37, 47, 52)" stroke="none" font-family="Arial" font-size="18px" font-style="normal" font-weight="normal" text-decoration="none" x="44.96923828125" y="15">Log Events</text></g><g transform="translate(0,0) matrix(1,0,0,1,359.8333333333333,200.38933434075324)"><g><g clip-path="url(#gA9aIIF5Gcml)"><g transform="translate(0,0) scale(0.39603960396039606,0.39603960396039606)"><g><g><path fill="#FFFFFF" stroke="rgb(0,0,0)" d="M 100.5 50.5 A 50 50 0 1 0 100.49997500000208 50.54999999166668 Z" stroke-opacity="0" stroke-miterlimit="10"></path></g></g><g><g><path fill="rgb(0,0,0)" stroke="#000000" d="M 15.974 29.272 L 50.5 50 L 85.026 29.272" fill-opacity="0" stroke-miterlimit="10" stroke-width="2"></path></g><g><path fill="rgb(0,0,0)" stroke="#000000" d="M 15.974 29.272 L 85.027 29.272 Q 85.027 29.272 85.027 29.272 L 85.027 70.729 Q 85.027 70.729 85.027 70.729 L 15.974 70.729 Q 15.974 70.729 15.974 70.729 L 15.974 29.272 Q 15.974 29.272 15.974 29.272 Z" fill-opacity="0" stroke-miterlimit="10" stroke-width="2"></path></g><g><path fill="rgb(0,0,0)" stroke="#000000" d="M 97.5 50.5 A 47 47 0 1 0 97.49997650000196 50.54699999216668 Z" fill-opacity="0" stroke-miterlimit="10" stroke-width="7"></path></g></g></g></g></g></g><g transform="translate(0,0) matrix(1,0,0,1,319.8333333333333,200.38933434075324)"><g><g transform="translate(0,0) scale(0.39603960396039606,0.39603960396039606)"><g><g><path fill="#FFFFFF" stroke="rgb(0,0,0)" d="M 100.505 50.505 A 50 50 0 1 0 100.50497500000208 50.55499999166668 Z" stroke-opacity="0" stroke-miterlimit="10" stroke-width="2"></path></g></g><g><g><path fill="rgb(0,0,0)" stroke="#000000" d="M 15.979 29.277 L 50.505 50.005 L 85.031 29.277" fill-opacity="0" stroke-miterlimit="10" stroke-width="2"></path></g><g><path fill="rgb(0,0,0)" stroke="#000000" d="M 15.979 29.277 L 85.032 29.277 Q 85.032 29.277 85.032 29.277 L 85.032 70.734 Q 85.032 70.734 85.032 70.734 L 15.979 70.734 Q 15.979 70.734 15.979 70.734 L 15.979 29.277 Q 15.979 29.277 15.979 29.277 Z" fill-opacity="0" stroke-miterlimit="10" stroke-width="2"></path></g><g><path fill="rgb(0,0,0)" stroke="#000000" d="M 100.505 50.505 A 50 50 0 1 0 100.50497500000208 50.55499999166668 Z" fill-opacity="0" stroke-miterlimit="10" stroke-width="2"></path></g><g><path fill="rgb(0,0,0)" stroke="#000000" d="M 95.505 50.505 A 45 45 0 1 0 95.50497750000187 50.54999999250002 Z" fill-opacity="0" stroke-miterlimit="10" stroke-width="2"></path></g></g></g></g></g><g transform="translate(0,0) matrix(1,0,0,1,279.83333333333337,200.38933434075324)"><g><g transform="translate(0,0) scale(0.39603960396039606,0.39603960396039606)"><g><g><path fill="#FFFFFF" stroke="rgb(0,0,0)" d="M 100.505 50.505 A 50 50 0 1 0 100.50497500000208 50.55499999166668 Z" stroke-opacity="0" stroke-miterlimit="10" stroke-width="2"></path></g></g><g><g><path fill="rgb(0,0,0)" stroke="#000000" d="M 15.979 29.277 L 50.505 50.005 L 85.031 29.277" fill-opacity="0" stroke-miterlimit="10" stroke-width="2"></path></g><g><path fill="rgb(0,0,0)" stroke="#000000" d="M 15.979 29.277 L 85.032 29.277 Q 85.032 29.277 85.032 29.277 L 85.032 70.734 Q 85.032 70.734 85.032 70.734 L 15.979 70.734 Q 15.979 70.734 15.979 70.734 L 15.979 29.277 Q 15.979 29.277 15.979 29.277 Z" fill-opacity="0" stroke-miterlimit="10" stroke-width="2"></path></g><g><path fill="rgb(0,0,0)" stroke="#000000" d="M 100.505 50.505 A 50 50 0 1 0 100.50497500000208 50.55499999166668 Z" fill-opacity="0" stroke-miterlimit="10" stroke-width="2"></path></g><g><path fill="rgb(0,0,0)" stroke="#000000" d="M 95.505 50.505 A 45 45 0 1 0 95.50497750000187 50.54999999250002 Z" fill-opacity="0" stroke-miterlimit="10" stroke-width="2"></path></g></g></g></g></g><g transform="translate(0,0) matrix(1,0,0,1,239.83333333333331,200.38933434075324)"><g><g transform="translate(0,0) scale(0.39603960396039606,0.39603960396039606)"><g><g><path fill="#FFFFFF" stroke="rgb(0,0,0)" d="M 100.505 50.505 A 50 50 0 1 0 100.50497500000208 50.55499999166668 Z" stroke-opacity="0" stroke-miterlimit="10" stroke-width="2"></path></g></g><g><g><path fill="rgb(0,0,0)" stroke="#000000" d="M 15.979 29.277 L 50.505 50.005 L 85.031 29.277" fill-opacity="0" stroke-miterlimit="10" stroke-width="2"></path></g><g><path fill="rgb(0,0,0)" stroke="#000000" d="M 15.979 29.277 L 85.032 29.277 Q 85.032 29.277 85.032 29.277 L 85.032 70.734 Q 85.032 70.734 85.032 70.734 L 15.979 70.734 Q 15.979 70.734 15.979 70.734 L 15.979 29.277 Q 15.979 29.277 15.979 29.277 Z" fill-opacity="0" stroke-miterlimit="10" stroke-width="2"></path></g><g><path fill="rgb(0,0,0)" stroke="#000000" d="M 100.505 50.505 A 50 50 0 1 0 100.50497500000208 50.55499999166668 Z" fill-opacity="0" stroke-miterlimit="10" stroke-width="2"></path></g></g></g></g></g><g transform="translate(0,0) matrix(1,0,0,1,960.1666666666667,342.2679533974814)"><g><g transform="translate(0,0)" clip-path="url(#ifmObPm2a6My)"><g transform="translate(0,0) scale(1.2,1.3485052803830362)"><g><g><path fill="rgb(0,0,0)" stroke="rgb(0,0,0)" d="M 0 0 L 100 0 Q 100 0 100 0 L 100 66 Q 100 66 100 66 L 0 66 Q 0 66 0 66 L 0 0 Q 0 0 0 0 Z" fill-opacity="0" stroke-opacity="0" stroke-miterlimit="10"></path></g><g><path fill="#003366" stroke="rgb(0,0,0)" d="M 81.644 17.955 C 80.675 17.955 79.732 18.043 78.803 18.177 C 78.806 18.103 78.811 18.029 78.811 17.955 C 78.811 8.039 68.306 0 55.35 0 C 44.444 0 35.277 5.693 32.647 13.408 C 29.18 10.575 24.609 8.836 19.58 8.836 C 8.766 8.836 7.105427e-15 16.81 7.105427e-15 26.648 C 7.105427e-15 34.491 5.583 41.139 13.325 43.515 C 13.272 43.652 13.208 43.78 13.158 43.919 C 10.915 50.147 14.003 56.958 20.054 59.134 C 25.605 61.13 31.715 58.522 34.42 53.269 C 38.776 60.113 44.698 65.506 54.719 65.968 C 66.798 66.525 76.584 59.711 79.527 51.463 C 80.223 51.537 80.925 51.585 81.644 51.585 C 91.781 51.585 100 44.056 100 34.77 C 100 25.483 91.781 17.955 81.644 17.955 Z" stroke-opacity="0" stroke-miterlimit="10"></path></g></g><g><g><path fill="rgb(0,0,0)" stroke="rgb(0,0,0)" d="M 0 0 L 100 0 Q 100 0 100 0 L 100 66 Q 100 66 100 66 L 0 66 Q 0 66 0 66 L 0 0 Q 0 0 0 0 Z" fill-opacity="0" stroke-opacity="0" stroke-miterlimit="10"></path></g><g><path fill="url(#BCcVyItBSnFx)" stroke="rgb(0,0,0)" d="M 80.162 19.335 C 79.24 19.335 78.342 19.414 77.459 19.533 C 77.461 19.467 77.467 19.401 77.467 19.335 C 77.467 9.321 67.793 1.759 55.463 1.759 C 44.097 1.759 35.811 7.009 33.306 15.318 C 30.007 12.786 25.031 10.268 20.245 10.268 C 9.953 10.268 1.887 17.087 1.874 27.104 C 1.862 37.326 12.798 42.058 14.981 42.539 C 12.643 47.8 14.239 54.936 20.835 57.364 C 26.069 59.291 32.467 56.031 34.573 50.523 C 37.957 57.051 46.38 64.2 55.932 64.2 C 66.248 64.2 77.026 57.703 78.499 49.887 C 79.161 49.953 79.481 50.02 80.162 50.063 C 90.988 50.742 98.212 42.663 98.212 34.363 C 98.212 26.063 89.812 19.335 80.162 19.335 Z" stroke-opacity="0" stroke-miterlimit="10"></path></g></g></g></g></g></g><g transform="scale(1,1) matrix(1,0,0,1,962.1666666666667,342.2679533974814) translate(2,34.5)"><text fill="#000000" stroke="none" font-family="Arial" font-size="18px" font-style="normal" font-weight="normal" text-decoration="none" x="2.47900390625" y="15">Elasticsearch</text></g><g transform="translate(0,0) matrix(1,0,0,1,820.1666666666667,364.2679533974814)"><g><g transform="translate(0,0)" clip-path="url(#v4vXCPrK66J3)"><g transform="translate(0,0) scale(1,1)"><g><g><path fill="rgb(0,0,0)" stroke="rgb(0,0,0)" d="M 0 0 L 80 0 Q 80 0 80 0 L 80 100 Q 80 100 80 100 L 0 100 Q 0 100 0 100 L 0 0 Q 0 0 0 0 Z" fill-opacity="0" stroke-opacity="0" stroke-miterlimit="10"></path></g><g><path fill="#003366" stroke="rgb(0,0,0)" d="M 80 22.54 C 79.965 16.745 -0.033 16.745 0 22.54 L 0 74.9 C 0.034 80.697 4.289 87.884 12.124 92.302 C 27.795 101.143 52.805 100.749 68.376 91.909 C 76.16 87.491 80.032 81.634 80 75.841 L 80 22.54 Z" stroke-opacity="0" stroke-miterlimit="10"></path></g></g><g><g><path fill="rgb(0,0,0)" stroke="rgb(0,0,0)" d="M 0 0 L 80 0 Q 80 0 80 0 L 80 100 Q 80 100 80 100 L 0 100 Q 0 100 0 100 L 0 0 Q 0 0 0 0 Z" fill-opacity="0" stroke-opacity="0" stroke-miterlimit="10"></path></g><g><g><path fill="url(#8qC46dI7QONW)" stroke="rgb(0,0,0)" d="M 68.98 77.395 C 53.08 86.406 27.211 86.406 11.208 77.395 C 5.298 74.069 1.565 69.975 5.329071e-15 65.685 L 5.329071e-15 76.926 C 0.035 82.83 3.973 88.738 11.81 93.244 C 27.48 102.252 52.808 102.252 68.377 93.243 C 76.161 88.738 80.033 82.83 80 76.926 L 80 65.818 C 78.456 70.062 74.79 74.101 68.98 77.395 Z" stroke-opacity="0" stroke-miterlimit="10"></path></g></g><g><g><path fill="url(#dbpginOTs1wO)" stroke="rgb(0,0,0)" d="M 68.98 58.327 C 53.08 67.338 27.211 67.338 11.208 58.329 C 5.298 55.001 1.565 50.908 5.329071e-15 46.617 L 5.329071e-15 57.86 C 0.035 63.763 3.973 69.672 11.809 74.176 C 27.479 83.186 52.807 83.186 68.376 74.176 C 76.161 69.672 80.033 63.764 80 57.86 L 80 46.752 C 78.456 50.996 74.79 55.034 68.98 58.327 Z" stroke-opacity="0" stroke-miterlimit="10"></path></g></g><g><g><path fill="url(#bOrQyHDVkH8g)" stroke="rgb(0,0,0)" d="M 68.98 39.262 C 53.08 48.27 27.211 48.27 11.208 39.262 C 5.298 35.934 5.329071e-15 29.531 0.014 22.515 L 4.67508e-15 38.793 C 0.035 44.695 3.973 50.605 11.809 55.108 C 27.479 64.118 52.807 64.118 68.376 55.106 C 76.161 50.604 80.033 44.695 80 38.793 L 80 22.515 C 80 22.766 74.79 35.968 68.98 39.262 Z" stroke-opacity="0" stroke-miterlimit="10"></path></g></g><g><path fill="#D0D2D3" stroke="rgb(0,0,0)" d="M 39.836 1.052 C 61.88155 1.052 79.753 11.12112 79.753 23.542 C 79.753 35.96288 61.88155 46.032 39.836 46.032 C 17.79045 46.032 -0.081 35.96288 -0.081 23.542 C -0.081 11.12112 17.79045 1.052 39.836 1.052 Z" stroke-opacity="0" stroke-miterlimit="10"></path></g><g><path fill="#7F7F7F" stroke="rgb(0,0,0)" d="M 68.191 7.228 C 52.52 -1.786 27.192 -1.786 11.624 7.228 C -3.945 16.239 -3.865 30.847 11.809 39.858 C 27.48 48.871 52.808 48.871 68.377 39.857 C 83.945 30.847 83.864 16.238 68.191 7.228 Z M 65.538 38.228 C 51.526 46.336 28.729 46.336 14.627 38.23 C 0.522 30.118 0.448 16.968 14.462 8.857 C 28.473 0.748 51.27 0.748 65.373 8.857 C 79.477 16.968 79.552 30.118 65.538 38.228 Z" stroke-opacity="0" stroke-miterlimit="10"></path></g></g></g></g></g></g><g transform="scale(1,1) matrix(1,0,0,1,822.1666666666667,364.2679533974814) translate(17.5,102)"><text fill="#000000" stroke="none" font-family="Arial" font-size="18px" font-style="normal" font-weight="normal" text-decoration="none" x="0.00146484375" y="15">HDD</text></g><g transform="translate(0,0) matrix(1,0,0,1,184,140.38933434075324)"><g><g transform="translate(0,0)" clip-path="url(#X5R9cEAs9sSp)"><g transform="translate(0,0) scale(0.9970238095238094,1)"><g><g><path fill="rgb(0,0,0)" stroke="rgb(0,0,0)" d="M 0 0 L 56 0 Q 56 0 56 0 L 56 100 Q 56 100 56 100 L 0 100 Q 0 100 0 100 L 0 0 Q 0 0 0 0 Z" fill-opacity="0" stroke-opacity="0" stroke-miterlimit="10"></path></g><g><path fill="#003366" stroke="rgb(0,0,0)" d="M 29.486 43.227 C 33.99154 43.227 37.644 47.63297 37.644 53.068 C 37.644 58.50303 33.99154 62.909 29.486 62.909 C 24.98046 62.909 21.328 58.50303 21.328 53.068 C 21.328 47.63297 24.98046 43.227 29.486 43.227 Z" stroke-opacity="0" stroke-miterlimit="10"></path></g></g><g><g><path fill="rgb(0,0,0)" stroke="rgb(0,0,0)" d="M 0 0 L 56 0 Q 56 0 56 0 L 56 100 Q 56 100 56 100 L 0 100 Q 0 100 0 100 L 0 0 Q 0 0 0 0 Z" fill-opacity="0" stroke-opacity="0" stroke-miterlimit="10"></path></g><g><path fill="#404041" stroke="rgb(0,0,0)" d="M 55.709 60.03 C 56.791 49.014 48.385 38.719 40.306 35.569 L 43.29 33.901 C 50.881 29.659 45.685 5.856 30.786 0.463 C 28.571 -0.339 24.305 -0.131 21.704 1.322 C 18.379 3.261 16.209 4.414 14.097 5.45 L 13.99 6.144 L 19.852 30.992 C 19.852 30.992 17.385 27.694 11.261 30.708 C 6.981 32.816 0.214 36.154 0.214 40.402 C 0.213 48.403 2.225 66.718 2.684 76.576 C 8.108 79.63 8.34 79.768 8.34 79.768 L 14.748 75.779 L 16.854 42.531 L 38.831 46.621 L 30.784 92.622 L 39.259 87.595 L 45.055 58.352 L 43.365 99.713 L 51.7 94.861 C 51.699 94.86 55.172 65.508 55.709 60.03 Z" stroke-opacity="0" stroke-miterlimit="10"></path></g><g><path fill="url(#FU2z5o2UMffP)" stroke="rgb(0,0,0)" d="M 46.206 61.124 C 44.623 50.211 39.126 46.277 33.834 43.227 C 32.091 42.253 31.455 41.901 28.805 40.42 C 33.688 40.685 37.102 37.103 37.122 30.717 C 37.148 22.001 30.854 11.381 23.07 7.001 C 15.276 2.614 8.943 6.133 8.918 14.849 C 8.899 21.288 12.332 28.752 17.263 33.989 C 13.361 33.426 0.192 32.54 0.004 41.776 C -0.103 47.036 2.47 76.756 2.47 76.756 L 8.127 79.948 L 9.442 47.091 L 14.01 83.175 L 30.784 92.621 L 37.644 62.909 L 38.284 96.843 L 43.365 99.712 C 43.364 99.712 46.995 66.571 46.206 61.124 Z M 33.838 56.191 C 33.864 56.26 33.889 56.329 33.908 56.405 C 34.508 58.809 31.012 59.812 30.104 57.754 C 29.276 59.05 26.868 59.17 26.384 57.23 C 26.242 56.662 26.338 56.177 26.566 55.786 C 25.576 56.048 24.417 55.664 24.097 54.384 C 23.785 53.134 24.582 52.266 25.546 52.004 C 24.996 51.814 24.531 51.378 24.348 50.64 C 23.795 48.422 26.727 47.394 27.9 48.863 C 28.246 47.015 31.319 46.547 31.872 48.765 C 31.934 49.013 31.941 49.242 31.922 49.458 C 32.981 48.843 34.581 49.079 34.965 50.621 C 35.192 51.532 34.825 52.238 34.24 52.656 C 34.643 52.89 34.97 53.283 35.117 53.87 C 35.41 55.043 34.722 55.878 33.838 56.191 Z" stroke-opacity="0" stroke-miterlimit="10"></path></g><g><path fill="#787878" stroke="rgb(0,0,0)" d="M 14.031 5.451 C 12.075 6.197 2.573 14.197 13.07 28.203 C 11.06 17.832 22.885 7.608 14.031 5.451 Z" stroke-opacity="0" stroke-miterlimit="10"></path></g><g><path fill="#787878" stroke="rgb(0,0,0)" d="M 14.211 5.427 C 14.211 5.427 23.267 20.149 33.845 18.425 C 30.435 11.621 22.448 2.638 14.211 5.427 Z" stroke-opacity="0" stroke-miterlimit="10"></path></g><g><path fill="#6D6D6D" stroke="rgb(0,0,0)" d="M 20.407 36.285 C 20.724 41.063 14.702 42.429 11.214 39.883 C 10.989 39.9 11.22 39.956 11.249 39.896 L 11.047 39.896 L 11.249 39.896 C 11.184 39.896 11.117 39.896 11.048 39.895 C 11.128 39.88 11.322 39.805 11.169 39.812 C 14.208 39.626 16.097 36.908 15.695 34.083 C 15.344 31.606 12.82 28.244 12.936 28.118 C 12.936 28.118 20.066 31.131 20.407 36.285 Z" stroke-opacity="0" stroke-miterlimit="10"></path></g></g></g></g></g></g><g transform="translate(0,0) matrix(1,0,0,1,510,200.38933434075324)"><g><g clip-path="url(#cbNqexWmFZVZ)"><g transform="translate(0,0) scale(0.39603960396039606,0.39603960396039606)"><g><g><path fill="#FFFFFF" stroke="rgb(0,0,0)" d="M 100.5 50.5 A 50 50 0 1 0 100.49997500000208 50.54999999166668 Z" stroke-opacity="0" stroke-miterlimit="10"></path></g></g><g><g><path fill="rgb(0,0,0)" stroke="#000000" d="M 15.974 29.272 L 50.5 50 L 85.026 29.272" fill-opacity="0" stroke-miterlimit="10" stroke-width="2"></path></g><g><path fill="rgb(0,0,0)" stroke="#000000" d="M 15.974 29.272 L 85.027 29.272 Q 85.027 29.272 85.027 29.272 L 85.027 70.729 Q 85.027 70.729 85.027 70.729 L 15.974 70.729 Q 15.974 70.729 15.974 70.729 L 15.974 29.272 Q 15.974 29.272 15.974 29.272 Z" fill-opacity="0" stroke-miterlimit="10" stroke-width="2"></path></g><g><path fill="rgb(0,0,0)" stroke="#000000" d="M 97.5 50.5 A 47 47 0 1 0 97.49997650000196 50.54699999216668 Z" fill-opacity="0" stroke-miterlimit="10" stroke-width="7"></path></g></g></g></g></g></g><g transform="translate(0,0) matrix(1,0,0,1,470,200.38933434075324)"><g><g transform="translate(0,0) scale(0.39603960396039606,0.39603960396039606)"><g><g><path fill="#FFFFFF" stroke="rgb(0,0,0)" d="M 100.505 50.505 A 50 50 0 1 0 100.50497500000208 50.55499999166668 Z" stroke-opacity="0" stroke-miterlimit="10" stroke-width="2"></path></g></g><g><g><path fill="rgb(0,0,0)" stroke="#000000" d="M 15.979 29.277 L 50.505 50.005 L 85.031 29.277" fill-opacity="0" stroke-miterlimit="10" stroke-width="2"></path></g><g><path fill="rgb(0,0,0)" stroke="#000000" d="M 15.979 29.277 L 85.032 29.277 Q 85.032 29.277 85.032 29.277 L 85.032 70.734 Q 85.032 70.734 85.032 70.734 L 15.979 70.734 Q 15.979 70.734 15.979 70.734 L 15.979 29.277 Q 15.979 29.277 15.979 29.277 Z" fill-opacity="0" stroke-miterlimit="10" stroke-width="2"></path></g><g><path fill="rgb(0,0,0)" stroke="#000000" d="M 100.505 50.505 A 50 50 0 1 0 100.50497500000208 50.55499999166668 Z" fill-opacity="0" stroke-miterlimit="10" stroke-width="2"></path></g><g><path fill="rgb(0,0,0)" stroke="#000000" d="M 95.505 50.505 A 45 45 0 1 0 95.50497750000187 50.54999999250002 Z" fill-opacity="0" stroke-miterlimit="10" stroke-width="2"></path></g></g></g></g></g><g transform="translate(0,0) matrix(1,0,0,1,399.83333333333326,210.38933434075324)"><g><g transform="translate(0,0) scale(0.7016666666666669,0.2)"><g><g transform="scale(1.4251781472684082,5)"><path fill="#CCC7BD" stroke="#7E725A" d="M 0 6 L 60.166666666666686 6 L 60.166666666666686 0 L 70.16666666666669 10 L 60.166666666666686 20 L 60.166666666666686 14 L 0 14 L 0 6 L 0 6 Z" stroke-miterlimit="10" stroke-width="2"></path></g></g></g></g></g><g transform="translate(0,0) matrix(1,0,0,1,550,210.38933434075324)"><g><g transform="translate(0,0) scale(1.1516666666666675,0.2)"><g><g transform="scale(0.868306801736613,5)"><path fill="#CCC7BD" stroke="#7E725A" d="M 0 6 L 105.16666666666676 6 L 105.16666666666676 0 L 115.16666666666676 10 L 105.16666666666676 20 L 105.16666666666676 14 L 0 14 L 0 6 L 0 6 Z" stroke-miterlimit="10" stroke-width="2"></path></g></g></g></g></g><g transform="translate(0,0) matrix(1,0,0,1,770,210.38933434075324)"><g><g transform="translate(0,0) scale(0.40166666666666745,0.2)"><g><g transform="scale(2.4896265560165927,5)"><path fill="#CCC7BD" stroke="#7E725A" d="M 0 6 L 30.166666666666742 6 L 30.166666666666742 0 L 40.16666666666674 10 L 30.166666666666742 20 L 30.166666666666742 14 L 0 14 L 0 6 L 0 6 Z" stroke-miterlimit="10" stroke-width="2"></path></g></g></g></g></g><g transform="translate(0,0) matrix(1,0,0,1,810.1666666666667,176.7679533974814)"><g><g transform="translate(0,0) scale(1,0.75)"><g><path fill="none" stroke="none" d="M 10 0 L 90 0 Q 100 0 100 10 L 100 90 Q 100 100 90 100 L 10 100 Q 0 100 0 90 L 0 10 Q 0 0 10 0 Z"></path><g transform="scale(1,1.3333333333333333)"><path fill="#CBD8DE" stroke="#7F9EAD" d="M 10 0 L 90 0 Q 100 0 100 10 L 100 65 Q 100 75 90 75 L 10 75 Q 0 75 0 65 L 0 10 Q 0 0 10 0 Z" stroke-miterlimit="10" stroke-width="2"></path></g></g></g></g></g><g transform="scale(1,1) matrix(1,0,0,1,812.1666666666667,176.7679533974814) translate(2,27.5)"><text fill="#000000" stroke="none" font-family="Arial" font-size="18px" font-style="normal" font-weight="normal" text-decoration="none" x="28.4921875" y="15">Sink</text></g><g transform="translate(0,0) matrix(1,0,0,1,670,351.76795339748145)"><g><g clip-path="url(#tNDVVUcTbEiV)"><g transform="translate(0,0) scale(1,1)"><g><g><path fill="rgb(0,0,0)" stroke="rgb(0,0,0)" d="M 0 0 L 99.939 0 Q 99.939 0 99.939 0 L 99.939 70 Q 99.939 70 99.939 70 L 0 70 Q 0 70 0 70 L 0 0 Q 0 0 0 0 Z" fill-opacity="0" stroke-opacity="0" stroke-miterlimit="10"></path></g><g><path fill="#003366" stroke="rgb(0,0,0)" d="M 0 20.471 L 6.125 16.92 L 68.51 52.351 L 68.51 66.532 L 62.464 70 L 62.383 55.835 L 0 20.471 Z" stroke-opacity="0" stroke-miterlimit="10"></path></g></g><g><g><path fill="rgb(0,0,0)" stroke="rgb(0,0,0)" d="M 0 0 L 99.939 0 Q 99.939 0 99.939 0 L 99.939 70 Q 99.939 70 99.939 70 L 0 70 Q 0 70 0 70 L 0 0 Q 0 0 0 0 Z" fill-opacity="0" stroke-opacity="0" stroke-miterlimit="10"></path></g><g><g><path fill="#4A4A4A" stroke="rgb(0,0,0)" d="M 62.383 55.835 L 62.464 70 L 0.001 34.61 L 0 20.471 L 62.383 55.835 Z" stroke-opacity="0" stroke-miterlimit="10"></path></g></g><g><path fill="url(#0DaCbrlSSphu)" stroke="rgb(0,0,0)" d="M 7.583 17.748 L 39.011 0 L 99.939 34.629 L 68.515 52.352 L 7.583 17.748 Z" stroke-opacity="0" stroke-miterlimit="10"></path></g><g><g><g><path fill="#4A4A4A" stroke="rgb(0,0,0)" d="M 2.419 27.165 L 4.868 28.492 L 4.851 26.736 L 3.962 26.22 L 2.419 27.165 Z" stroke-opacity="0" stroke-miterlimit="10"></path></g><g><g><path fill="#BFBFBF" stroke="rgb(0,0,0)" d="M 2.392 25.422 L 2.397 25.395 L 3.922 26.23 L 2.397 27.175 L 2.392 25.422 Z" stroke-opacity="0" stroke-miterlimit="10"></path></g></g><g><g><path fill="#808080" stroke="rgb(0,0,0)" d="M 5.089 26.348 L 5.317 26.474 L 5.318 26.73 L 5.325 28.996 L 5.326 29.256 L 5.098 29.133 L 2.193 27.557 L 1.972 27.436 L 1.971 27.18 L 1.964 24.91 L 1.963 24.653 L 2.183 24.772 L 5.089 26.348 Z M 4.868 28.492 L 4.851 26.736 L 2.415 25.412 L 2.419 27.165 L 4.868 28.492" stroke-opacity="0" stroke-miterlimit="10"></path></g></g></g><g><g><path fill="#4A4A4A" stroke="rgb(0,0,0)" d="M 7.372 29.948 L 9.82 31.276 L 9.803 29.521 L 8.915 29.004 L 7.372 29.948 Z" stroke-opacity="0" stroke-miterlimit="10"></path></g><g><g><path fill="#BFBFBF" stroke="rgb(0,0,0)" d="M 7.344 28.206 L 7.349 28.179 L 8.874 29.015 L 7.349 29.959 L 7.344 28.206 Z" stroke-opacity="0" stroke-miterlimit="10"></path></g></g><g><g><path fill="#808080" stroke="rgb(0,0,0)" d="M 10.042 29.132 L 10.27 29.258 L 10.271 29.514 L 10.278 31.78 L 10.279 32.04 L 10.051 31.917 L 7.145 30.34 L 6.924 30.22 L 6.923 29.963 L 6.917 27.694 L 6.916 27.438 L 7.136 27.556 L 10.042 29.132 Z M 9.82 31.276 L 9.803 29.52 L 7.367 28.195 L 7.372 29.948 L 9.82 31.276" stroke-opacity="0" stroke-miterlimit="10"></path></g></g></g><g><g><path fill="#4A4A4A" stroke="rgb(0,0,0)" d="M 12.324 32.732 L 14.772 34.061 L 14.755 32.304 L 13.867 31.788 L 12.324 32.732 Z" stroke-opacity="0" stroke-miterlimit="10"></path></g><g><g><path fill="#BFBFBF" stroke="rgb(0,0,0)" d="M 12.296 30.99 L 12.301 30.963 L 13.826 31.798 L 12.301 32.743 L 12.296 30.99 Z" stroke-opacity="0" stroke-miterlimit="10"></path></g></g><g><g><path fill="#808080" stroke="rgb(0,0,0)" d="M 14.993 31.916 L 15.222 32.042 L 15.223 32.299 L 15.23 34.563 L 15.231 34.823 L 15.003 34.702 L 12.098 33.125 L 11.877 33.005 L 11.876 32.748 L 11.87 30.479 L 11.869 30.223 L 12.089 30.341 L 14.993 31.916 Z M 14.772 34.061 L 14.755 32.304 L 12.319 30.98 L 12.324 32.733 L 14.772 34.061" stroke-opacity="0" stroke-miterlimit="10"></path></g></g></g><g><g><path fill="#4A4A4A" stroke="rgb(0,0,0)" d="M 17.276 35.517 L 19.724 36.845 L 19.707 35.088 L 18.819 34.571 L 17.276 35.517 Z" stroke-opacity="0" stroke-miterlimit="10"></path></g><g><g><path fill="#BFBFBF" stroke="rgb(0,0,0)" d="M 17.248 33.774 L 17.253 33.747 L 18.778 34.582 L 17.253 35.527 L 17.248 33.774 Z" stroke-opacity="0" stroke-miterlimit="10"></path></g></g><g><g><path fill="#808080" stroke="rgb(0,0,0)" d="M 19.945 34.701 L 20.174 34.825 L 20.175 35.082 L 20.182 37.348 L 20.183 37.607 L 19.955 37.486 L 17.05 35.909 L 16.829 35.789 L 16.828 35.533 L 16.822 33.264 L 16.821 33.007 L 17.041 33.125 L 19.945 34.701 Z M 19.724 36.845 L 19.707 35.088 L 17.271 33.764 L 17.276 35.517 L 19.724 36.845" stroke-opacity="0" stroke-miterlimit="10"></path></g></g></g><g><g><path fill="#4A4A4A" stroke="rgb(0,0,0)" d="M 22.228 38.302 L 24.676 39.629 L 24.659 37.873 L 23.771 37.356 L 22.228 38.302 Z" stroke-opacity="0" stroke-miterlimit="10"></path></g><g><g><path fill="#BFBFBF" stroke="rgb(0,0,0)" d="M 22.2 36.56 L 22.206 36.531 L 23.73 37.367 L 22.206 38.312 L 22.2 36.56 Z" stroke-opacity="0" stroke-miterlimit="10"></path></g></g><g><g><path fill="#808080" stroke="rgb(0,0,0)" d="M 24.897 37.485 L 25.126 37.61 L 25.127 37.866 L 25.133 40.132 L 25.134 40.392 L 24.906 40.269 L 22.001 38.693 L 21.78 38.572 L 21.779 38.316 L 21.773 36.048 L 21.772 35.791 L 21.992 35.909 L 24.897 37.485 Z M 24.676 39.629 L 24.659 37.873 L 22.223 36.549 L 22.228 38.302 L 24.676 39.629" stroke-opacity="0" stroke-miterlimit="10"></path></g></g></g><g><g><path fill="#4A4A4A" stroke="rgb(0,0,0)" d="M 27.18 41.086 L 29.628 42.413 L 29.611 40.657 L 28.723 40.141 L 27.18 41.086 Z" stroke-opacity="0" stroke-miterlimit="10"></path></g><g><g><path fill="#BFBFBF" stroke="rgb(0,0,0)" d="M 27.152 39.343 L 27.158 39.315 L 28.683 40.151 L 27.158 41.096 L 27.152 39.343 Z" stroke-opacity="0" stroke-miterlimit="10"></path></g></g><g><g><path fill="#808080" stroke="rgb(0,0,0)" d="M 29.85 40.269 L 30.079 40.395 L 30.08 40.651 L 30.086 42.917 L 30.087 43.177 L 29.859 43.054 L 26.954 41.478 L 26.733 41.358 L 26.731 41.1 L 26.725 38.831 L 26.724 38.575 L 26.944 38.693 L 29.85 40.269 Z M 29.628 42.413 L 29.611 40.657 L 27.175 39.333 L 27.18 41.086 L 29.628 42.413" stroke-opacity="0" stroke-miterlimit="10"></path></g></g></g><g><g><path fill="#4A4A4A" stroke="rgb(0,0,0)" d="M 32.132 43.869 L 34.581 45.197 L 34.563 43.441 L 33.675 42.925 L 32.132 43.869 Z" stroke-opacity="0" stroke-miterlimit="10"></path></g><g><g><path fill="#BFBFBF" stroke="rgb(0,0,0)" d="M 32.104 42.127 L 32.11 42.1 L 33.635 42.935 L 32.11 43.88 L 32.104 42.127 Z" stroke-opacity="0" stroke-miterlimit="10"></path></g></g><g><g><path fill="#808080" stroke="rgb(0,0,0)" d="M 34.802 43.053 L 35.031 43.179 L 35.032 43.436 L 35.038 45.701 L 35.039 45.961 L 34.811 45.838 L 31.906 44.262 L 31.685 44.142 L 31.684 43.885 L 31.678 41.616 L 31.677 41.36 L 31.897 41.478 L 34.802 43.053 Z M 34.581 45.197 L 34.564 43.441 L 32.128 42.116 L 32.133 43.869 L 34.581 45.197" stroke-opacity="0" stroke-miterlimit="10"></path></g></g></g><g><g><path fill="#4A4A4A" stroke="rgb(0,0,0)" d="M 37.084 46.653 L 39.533 47.981 L 39.516 46.225 L 38.627 45.708 L 37.084 46.653 Z" stroke-opacity="0" stroke-miterlimit="10"></path></g><g><g><path fill="#BFBFBF" stroke="rgb(0,0,0)" d="M 37.057 44.911 L 37.062 44.885 L 38.587 45.719 L 37.062 46.664 L 37.057 44.911 Z" stroke-opacity="0" stroke-miterlimit="10"></path></g></g><g><g><path fill="#808080" stroke="rgb(0,0,0)" d="M 39.754 45.837 L 39.983 45.963 L 39.984 46.22 L 39.99 48.485 L 39.991 48.744 L 39.763 48.623 L 36.858 47.046 L 36.637 46.926 L 36.636 46.67 L 36.629 44.4 L 36.628 44.143 L 36.848 44.261 L 39.754 45.837 Z M 39.533 47.981 L 39.516 46.224 L 37.08 44.9 L 37.085 46.653 L 39.533 47.981" stroke-opacity="0" stroke-miterlimit="10"></path></g></g></g><g><g><path fill="#4A4A4A" stroke="rgb(0,0,0)" d="M 42.037 49.438 L 44.485 50.766 L 44.468 49.01 L 43.579 48.492 L 42.037 49.438 Z" stroke-opacity="0" stroke-miterlimit="10"></path></g><g><g><path fill="#BFBFBF" stroke="rgb(0,0,0)" d="M 42.009 47.696 L 42.014 47.668 L 43.539 48.503 L 42.014 49.449 L 42.009 47.696 Z" stroke-opacity="0" stroke-miterlimit="10"></path></g></g><g><g><path fill="#808080" stroke="rgb(0,0,0)" d="M 44.706 48.622 L 44.935 48.747 L 44.936 49.003 L 44.942 51.269 L 44.943 51.529 L 44.715 51.407 L 41.81 49.83 L 41.589 49.71 L 41.588 49.454 L 41.582 47.185 L 41.581 46.928 L 41.801 47.046 L 44.706 48.622 Z M 44.485 50.766 L 44.468 49.01 L 42.032 47.686 L 42.037 49.439 L 44.485 50.766" stroke-opacity="0" stroke-miterlimit="10"></path></g></g></g><g><g><path fill="#4A4A4A" stroke="rgb(0,0,0)" d="M 46.989 52.223 L 49.437 53.55 L 49.419 51.794 L 48.531 51.277 L 46.989 52.223 Z" stroke-opacity="0" stroke-miterlimit="10"></path></g><g><g><path fill="#BFBFBF" stroke="rgb(0,0,0)" d="M 46.961 50.48 L 46.966 50.452 L 48.491 51.288 L 46.966 52.232 L 46.961 50.48 Z" stroke-opacity="0" stroke-miterlimit="10"></path></g></g><g><g><path fill="#808080" stroke="rgb(0,0,0)" d="M 49.658 51.406 L 49.887 51.531 L 49.888 51.787 L 49.894 54.053 L 49.895 54.313 L 49.667 54.19 L 46.762 52.614 L 46.541 52.494 L 46.54 52.237 L 46.534 49.969 L 46.533 49.713 L 46.753 49.83 L 49.658 51.406 Z M 49.437 53.55 L 49.419 51.794 L 46.983 50.47 L 46.988 52.223 L 49.437 53.55" stroke-opacity="0" stroke-miterlimit="10"></path></g></g></g></g><g><g><g><path fill="#4A4A4A" stroke="rgb(0,0,0)" d="M 2.419 31.825 L 4.868 33.152 L 4.851 31.396 L 3.962 30.88 L 2.419 31.825 Z" stroke-opacity="0" stroke-miterlimit="10"></path></g><g><g><path fill="#BFBFBF" stroke="rgb(0,0,0)" d="M 2.392 30.083 L 2.397 30.055 L 3.922 30.891 L 2.397 31.836 L 2.392 30.083 Z" stroke-opacity="0" stroke-miterlimit="10"></path></g></g><g><g><path fill="#808080" stroke="rgb(0,0,0)" d="M 5.089 31.009 L 5.317 31.134 L 5.318 31.39 L 5.325 33.656 L 5.326 33.916 L 5.098 33.794 L 2.193 32.217 L 1.972 32.097 L 1.971 31.84 L 1.964 29.571 L 1.963 29.314 L 2.183 29.432 L 5.089 31.009 Z M 4.868 33.152 L 4.851 31.396 L 2.415 30.072 L 2.419 31.825 L 4.868 33.152" stroke-opacity="0" stroke-miterlimit="10"></path></g></g></g><g><g><path fill="#4A4A4A" stroke="rgb(0,0,0)" d="M 7.372 34.609 L 9.82 35.937 L 9.803 34.181 L 8.915 33.664 L 7.372 34.609 Z" stroke-opacity="0" stroke-miterlimit="10"></path></g><g><g><path fill="#BFBFBF" stroke="rgb(0,0,0)" d="M 7.344 32.867 L 7.349 32.839 L 8.874 33.675 L 7.349 34.619 L 7.344 32.867 Z" stroke-opacity="0" stroke-miterlimit="10"></path></g></g><g><g><path fill="#808080" stroke="rgb(0,0,0)" d="M 10.042 33.793 L 10.27 33.918 L 10.271 34.174 L 10.278 36.44 L 10.279 36.7 L 10.051 36.577 L 7.145 35 L 6.924 34.88 L 6.923 34.623 L 6.917 32.354 L 6.916 32.098 L 7.136 32.216 L 10.042 33.793 Z M 9.82 35.937 L 9.803 34.181 L 7.367 32.857 L 7.372 34.61 L 9.82 35.937" stroke-opacity="0" stroke-miterlimit="10"></path></g></g></g><g><g><path fill="#4A4A4A" stroke="rgb(0,0,0)" d="M 12.324 37.393 L 14.772 38.722 L 14.755 36.965 L 13.867 36.448 L 12.324 37.393 Z" stroke-opacity="0" stroke-miterlimit="10"></path></g><g><g><path fill="#BFBFBF" stroke="rgb(0,0,0)" d="M 12.296 35.65 L 12.301 35.623 L 13.826 36.459 L 12.301 37.403 L 12.296 35.65 Z" stroke-opacity="0" stroke-miterlimit="10"></path></g></g><g><g><path fill="#808080" stroke="rgb(0,0,0)" d="M 14.993 36.576 L 15.222 36.702 L 15.223 36.959 L 15.23 39.224 L 15.231 39.484 L 15.003 39.361 L 12.098 37.785 L 11.877 37.665 L 11.876 37.408 L 11.87 35.139 L 11.869 34.883 L 12.089 35.001 L 14.993 36.576 Z M 14.772 38.722 L 14.755 36.965 L 12.319 35.641 L 12.324 37.393 L 14.772 38.722" stroke-opacity="0" stroke-miterlimit="10"></path></g></g></g><g><g><path fill="#4A4A4A" stroke="rgb(0,0,0)" d="M 17.276 40.177 L 19.724 41.505 L 19.707 39.749 L 18.819 39.232 L 17.276 40.177 Z" stroke-opacity="0" stroke-miterlimit="10"></path></g><g><g><path fill="#BFBFBF" stroke="rgb(0,0,0)" d="M 17.248 38.435 L 17.253 38.408 L 18.778 39.242 L 17.253 40.188 L 17.248 38.435 Z" stroke-opacity="0" stroke-miterlimit="10"></path></g></g><g><g><path fill="#808080" stroke="rgb(0,0,0)" d="M 19.945 39.36 L 20.174 39.486 L 20.175 39.743 L 20.182 42.009 L 20.183 42.267 L 19.955 42.146 L 17.05 40.57 L 16.829 40.449 L 16.828 40.193 L 16.822 37.924 L 16.821 37.667 L 17.041 37.785 L 19.945 39.36 Z M 19.724 41.505 L 19.707 39.749 L 17.271 38.424 L 17.276 40.177 L 19.724 41.505" stroke-opacity="0" stroke-miterlimit="10"></path></g></g></g><g><g><path fill="#4A4A4A" stroke="rgb(0,0,0)" d="M 22.228 42.962 L 24.676 44.289 L 24.659 42.533 L 23.771 42.016 L 22.228 42.962 Z" stroke-opacity="0" stroke-miterlimit="10"></path></g><g><g><path fill="#BFBFBF" stroke="rgb(0,0,0)" d="M 22.2 41.22 L 22.206 41.191 L 23.73 42.026 L 22.206 42.973 L 22.2 41.22 Z" stroke-opacity="0" stroke-miterlimit="10"></path></g></g><g><g><path fill="#808080" stroke="rgb(0,0,0)" d="M 24.897 42.146 L 25.126 42.271 L 25.127 42.527 L 25.133 44.793 L 25.134 45.053 L 24.906 44.931 L 22.001 43.354 L 21.78 43.234 L 21.779 42.978 L 21.773 40.709 L 21.772 40.452 L 21.992 40.571 L 24.897 42.146 Z M 24.676 44.289 L 24.659 42.533 L 22.223 41.209 L 22.228 42.962 L 24.676 44.289" stroke-opacity="0" stroke-miterlimit="10"></path></g></g></g><g><g><path fill="#4A4A4A" stroke="rgb(0,0,0)" d="M 27.18 45.746 L 29.628 47.073 L 29.611 45.317 L 28.723 44.801 L 27.18 45.746 Z" stroke-opacity="0" stroke-miterlimit="10"></path></g><g><g><path fill="#BFBFBF" stroke="rgb(0,0,0)" d="M 27.152 44.004 L 27.158 43.976 L 28.683 44.812 L 27.158 45.757 L 27.152 44.004 Z" stroke-opacity="0" stroke-miterlimit="10"></path></g></g><g><g><path fill="#808080" stroke="rgb(0,0,0)" d="M 29.85 44.93 L 30.079 45.055 L 30.08 45.311 L 30.086 47.577 L 30.087 47.837 L 29.859 47.714 L 26.954 46.138 L 26.733 46.018 L 26.732 45.761 L 26.726 43.493 L 26.725 43.237 L 26.945 43.354 L 29.85 44.93 Z M 29.628 47.073 L 29.611 45.317 L 27.175 43.993 L 27.18 45.746 L 29.628 47.073" stroke-opacity="0" stroke-miterlimit="10"></path></g></g></g><g><g><path fill="#4A4A4A" stroke="rgb(0,0,0)" d="M 32.132 48.53 L 34.581 49.857 L 34.563 48.102 L 33.675 47.585 L 32.132 48.53 Z" stroke-opacity="0" stroke-miterlimit="10"></path></g><g><g><path fill="#BFBFBF" stroke="rgb(0,0,0)" d="M 32.104 46.787 L 32.11 46.76 L 33.635 47.596 L 32.11 48.54 L 32.104 46.787 Z" stroke-opacity="0" stroke-miterlimit="10"></path></g></g><g><g><path fill="#808080" stroke="rgb(0,0,0)" d="M 34.802 47.713 L 35.031 47.839 L 35.032 48.096 L 35.038 50.361 L 35.039 50.621 L 34.811 50.498 L 31.906 48.922 L 31.685 48.802 L 31.684 48.545 L 31.678 46.276 L 31.677 46.02 L 31.897 46.138 L 34.802 47.713 Z M 34.581 49.857 L 34.564 48.101 L 32.128 46.777 L 32.133 48.53 L 34.581 49.857" stroke-opacity="0" stroke-miterlimit="10"></path></g></g></g><g><g><path fill="#4A4A4A" stroke="rgb(0,0,0)" d="M 37.084 51.313 L 39.533 52.642 L 39.516 50.886 L 38.627 50.369 L 37.084 51.313 Z" stroke-opacity="0" stroke-miterlimit="10"></path></g><g><g><path fill="#BFBFBF" stroke="rgb(0,0,0)" d="M 37.057 49.571 L 37.062 49.545 L 38.587 50.38 L 37.062 51.324 L 37.057 49.571 Z" stroke-opacity="0" stroke-miterlimit="10"></path></g></g><g><g><path fill="#808080" stroke="rgb(0,0,0)" d="M 39.754 50.497 L 39.983 50.623 L 39.984 50.88 L 39.99 53.146 L 39.991 53.405 L 39.763 53.283 L 36.858 51.707 L 36.637 51.586 L 36.636 51.33 L 36.63 49.061 L 36.629 48.804 L 36.849 48.922 L 39.754 50.497 Z M 39.533 52.642 L 39.516 50.886 L 37.08 49.561 L 37.085 51.314 L 39.533 52.642" stroke-opacity="0" stroke-miterlimit="10"></path></g></g></g><g><g><path fill="#4A4A4A" stroke="rgb(0,0,0)" d="M 42.037 54.098 L 44.485 55.426 L 44.468 53.67 L 43.579 53.153 L 42.037 54.098 Z" stroke-opacity="0" stroke-miterlimit="10"></path></g><g><g><path fill="#BFBFBF" stroke="rgb(0,0,0)" d="M 42.009 52.356 L 42.014 52.329 L 43.539 53.163 L 42.014 54.108 L 42.009 52.356 Z" stroke-opacity="0" stroke-miterlimit="10"></path></g></g><g><g><path fill="#808080" stroke="rgb(0,0,0)" d="M 44.706 53.282 L 44.935 53.408 L 44.936 53.664 L 44.942 55.929 L 44.943 56.189 L 44.715 56.067 L 41.81 54.49 L 41.589 54.37 L 41.588 54.114 L 41.582 51.845 L 41.581 51.588 L 41.801 51.707 L 44.706 53.282 Z M 44.485 55.426 L 44.468 53.67 L 42.032 52.346 L 42.037 54.098 L 44.485 55.426" stroke-opacity="0" stroke-miterlimit="10"></path></g></g></g><g><g><path fill="#4A4A4A" stroke="rgb(0,0,0)" d="M 46.989 56.883 L 49.437 58.21 L 49.419 56.454 L 48.531 55.938 L 46.989 56.883 Z" stroke-opacity="0" stroke-miterlimit="10"></path></g><g><g><path fill="#BFBFBF" stroke="rgb(0,0,0)" d="M 46.961 55.141 L 46.966 55.112 L 48.491 55.948 L 46.966 56.894 L 46.961 55.141 Z" stroke-opacity="0" stroke-miterlimit="10"></path></g></g><g><g><path fill="#808080" stroke="rgb(0,0,0)" d="M 49.658 56.066 L 49.887 56.191 L 49.888 56.447 L 49.894 58.713 L 49.895 58.973 L 49.667 58.851 L 46.762 57.274 L 46.541 57.155 L 46.54 56.898 L 46.534 54.629 L 46.533 54.373 L 46.753 54.49 L 49.658 56.066 Z M 49.437 58.21 L 49.419 56.454 L 46.983 55.13 L 46.988 56.883 L 49.437 58.21" stroke-opacity="0" stroke-miterlimit="10"></path></g></g></g></g><g><path fill="#5C5C5C" stroke="rgb(0,0,0)" d="M 68.51 52.351 L 99.939 34.545 L 100 47.862 L 68.51 65.58 L 68.51 52.351 Z" stroke-opacity="0" stroke-miterlimit="10"></path></g><g><path fill="#8B8B14" stroke="rgb(0,0,0)" d="M 54.074 55.762 L 54.074 57.653 L 55.94 58.727 L 55.94 56.855 L 54.074 55.762 Z" stroke-opacity="0" stroke-miterlimit="10"></path></g><g><path fill="#148B14" stroke="rgb(0,0,0)" d="M 54.074 58.604 L 54.074 60.496 L 55.94 61.569 L 55.94 59.698 L 54.074 58.604 Z" stroke-opacity="0" stroke-miterlimit="10"></path></g><g><path fill="#148B14" stroke="rgb(0,0,0)" d="M 56.59 57.182 L 56.59 59.074 L 58.456 60.147 L 58.456 58.277 L 56.59 57.182 Z" stroke-opacity="0" stroke-miterlimit="10"></path></g><g><path fill="#8B8B14" stroke="rgb(0,0,0)" d="M 56.59 60.025 L 56.59 61.917 L 58.456 62.991 L 58.456 61.119 L 56.59 60.025 Z" stroke-opacity="0" stroke-miterlimit="10"></path></g></g></g></g></g></g><g transform="scale(1,1) matrix(1,0,0,1,672,351.76795339748145) translate(13.5,72)"><text fill="#000000" stroke="none" font-family="Arial" font-size="18px" font-style="normal" font-weight="normal" text-decoration="none" x="0.49267578125" y="15">Network</text></g></g></svg>